<svg xmlns="http://www.w3.org/2000/svg"  viewBox="0 0 64 64" width="50px" height="50px"><linearGradient id="6cYJchCEob97GCxJ4kCRsa" x1="32" x2="32" y1="4.5" y2="58.505" gradientUnits="userSpaceOnUse" spreadMethod="reflect"><stop offset="0" stop-color="#1a6dff"/><stop offset="1" stop-color="#c822ff"/></linearGradient><path fill="url(#6cYJchCEob97GCxJ4kCRsa)" d="M57,38c0-4.792-3.085-8.867-7.37-10.372l0.615-5.093C50.476,21.066,52,20,53,20h2v-3 c0-2.757-2.243-5-5-5H38.72l-0.856-2.569C37.181,7.379,35.268,6,33.104,6h-4.207c-2.164,0-4.077,1.379-4.761,3.431L23.28,12H12 c-2.757,0-5,2.243-5,5v3h2c1,0,2.524,1.066,2.756,2.535l4.722,31.243C16.864,56.225,18.942,58,21.419,58h19.162 c2.477,0,4.555-1.775,4.939-4.222l0.757-4.792C52.214,48.837,57,43.972,57,38z M26.032,10.064C26.444,8.83,27.595,8,28.896,8h4.207 c1.302,0,2.452,0.83,2.864,2.064L36.613,12h-1.892l-0.545-1.634C33.904,9.549,33.144,9,32.282,9h-2.564 c-0.861,0-1.622,0.549-1.893,1.364L27.279,12h-1.893L26.032,10.064z M9,17c0-1.654,1.346-3,3-3h14.612h8.775H50c1.654,0,3,1.346,3,3 v1H9V17z M43.545,53.467C43.314,54.935,42.067,56,40.581,56h-3.963l-0.446-0.892C35.831,54.425,35.144,54,34.38,54h-6.76 c-0.764,0-1.451,0.425-1.792,1.108L25.382,56h-3.963c-1.486,0-2.628-1.065-2.86-2.533l-4.827-31.243 C13.6,21.386,13.227,20.636,12.728,20H17v5h2v-5h3v11h2V20h3v8h2v-8h3v5h2v-5h15.272c-0.499,0.636-0.871,1.386-1.003,2.224 l-0.593,4.918C47.128,27.057,46.571,27,46,27c-6.065,0-11,4.935-11,11v11h9.251L43.545,53.467z M46,47h-9v-9c0-4.962,4.037-9,9-9 s9,4.038,9,9S50.963,47,46,47z"/><linearGradient id="6cYJchCEob97GCxJ4kCRsb" x1="50" x2="50" y1="33.875" y2="38.252" gradientUnits="userSpaceOnUse" spreadMethod="reflect"><stop offset="0" stop-color="#6dc7ff"/><stop offset="1" stop-color="#e6abff"/></linearGradient><path fill="url(#6cYJchCEob97GCxJ4kCRsb)" d="M50 34A2 2 0 1 0 50 38A2 2 0 1 0 50 34Z"/><linearGradient id="6cYJchCEob97GCxJ4kCRsc" x1="42" x2="42" y1="33.875" y2="38.252" gradientUnits="userSpaceOnUse" spreadMethod="reflect"><stop offset="0" stop-color="#6dc7ff"/><stop offset="1" stop-color="#e6abff"/></linearGradient><path fill="url(#6cYJchCEob97GCxJ4kCRsc)" d="M42 34A2 2 0 1 0 42 38A2 2 0 1 0 42 34Z"/><linearGradient id="6cYJchCEob97GCxJ4kCRsd" x1="46" x2="46" y1="38.125" y2="43.513" gradientUnits="userSpaceOnUse" spreadMethod="reflect"><stop offset="0" stop-color="#6dc7ff"/><stop offset="1" stop-color="#e6abff"/></linearGradient><path fill="url(#6cYJchCEob97GCxJ4kCRsd)" d="M49.454,43c0.314,0,0.549-0.283,0.502-0.594C49.67,40.479,48.007,39,46,39 s-3.67,1.479-3.956,3.406C41.998,42.717,42.233,43,42.546,43H49.454z"/></svg>