<svg xmlns="http://www.w3.org/2000/svg"  viewBox="0 0 64 64" width="50px" height="50px"><linearGradient id="NHD9gZdQDJj0HA67oC7KMa" x1="32" x2="32" y1="5" y2="59.134" gradientUnits="userSpaceOnUse" spreadMethod="reflect"><stop offset="0" stop-color="#1a6dff"/><stop offset="1" stop-color="#c822ff"/></linearGradient><path fill="url(#NHD9gZdQDJj0HA67oC7KMa)" d="M32,58C17.663,58,6,46.337,6,32S17.663,6,32,6s26,11.663,26,26S46.337,58,32,58z M32,8 C18.767,8,8,18.767,8,32s10.767,24,24,24s24-10.767,24-24S45.233,8,32,8z"/><linearGradient id="NHD9gZdQDJj0HA67oC7KMb" x1="32" x2="32" y1="5" y2="59.134" gradientUnits="userSpaceOnUse" spreadMethod="reflect"><stop offset="0" stop-color="#1a6dff"/><stop offset="1" stop-color="#c822ff"/></linearGradient><path fill="url(#NHD9gZdQDJj0HA67oC7KMb)" d="M32,52c-11.028,0-20-8.972-20-20s8.972-20,20-20s20,8.972,20,20S43.028,52,32,52z M32,14 c-9.925,0-18,8.075-18,18s8.075,18,18,18s18-8.075,18-18S41.925,14,32,14z"/><linearGradient id="NHD9gZdQDJj0HA67oC7KMc" x1="32" x2="32" y1="20.833" y2="42.698" gradientUnits="userSpaceOnUse" spreadMethod="reflect"><stop offset="0" stop-color="#6dc7ff"/><stop offset="1" stop-color="#e6abff"/></linearGradient><path fill="url(#NHD9gZdQDJj0HA67oC7KMc)" d="M40.692,24.724l-1.417-1.417c-0.41-0.41-1.076-0.41-1.486,0L32,29.097l-5.789-5.789 c-0.41-0.41-1.076-0.41-1.486,0l-1.417,1.417c-0.41,0.41-0.41,1.076,0,1.486L29.097,32l-5.789,5.789c-0.41,0.41-0.41,1.076,0,1.486 l1.417,1.417c0.41,0.41,1.076,0.41,1.486,0L32,34.903l5.789,5.789c0.41,0.41,1.076,0.41,1.486,0l1.417-1.417 c0.41-0.41,0.41-1.076,0-1.486L34.903,32l5.789-5.789C41.103,25.8,41.103,25.135,40.692,24.724z"/></svg>